<!DOCTYPE svg PUBLIC "-//W3C//DTD SVG 20010904//EN" "http://www.w3.org/TR/2001/REC-SVG-20010904/DTD/svg10.dtd">
<svg version="1.0" xmlns="http://www.w3.org/2000/svg" width="600px" height="600px" viewBox="0 0 6000 6000" preserveAspectRatio="xMidYMid meet">
<g id="layer1" fill="#fa476e" stroke="none">
 <path d="M700 4500 l0 -200 2300 0 2300 0 0 200 0 200 -2300 0 -2300 0 0 -200z"/>
 <path d="M700 2800 l0 -200 2300 0 2300 0 0 200 0 200 -2300 0 -2300 0 0 -200z"/>
 <path d="M700 1100 l0 -200 2300 0 2300 0 0 200 0 200 -2300 0 -2300 0 0 -200z"/>
 </g>
<g id="layer2" fill="#ffffff" stroke="none">
 <path d="M700 4900 l0 -200 2300 0 2300 0 0 200 0 200 -2300 0 -2300 0 0 -200z"/>
 <path d="M700 3200 l0 -200 2300 0 2300 0 0 200 0 200 -2300 0 -2300 0 0 -200z"/>
 <path d="M700 1500 l0 -200 2300 0 2300 0 0 200 0 200 -2300 0 -2300 0 0 -200z"/>
 </g>

</svg>